<svg xmlns="http://www.w3.org/2000/svg" viewBox="0 0 720 900" role="img" aria-labelledby="title desc">
  <title id="title">최재봉 상담팀장 프로필 대체 이미지</title>
  <desc id="desc">실제 프로필 사진 파일을 assets/choi-jaebong.png로 넣기 전까지 표시되는 대체 이미지입니다.</desc>
  <defs>
    <linearGradient id="bg" x1="0" y1="0" x2="1" y2="1">
      <stop offset="0" stop-color="#ffffff"/>
      <stop offset=".64" stop-color="#f3f3f2"/>
      <stop offset="1" stop-color="#ffe8e9"/>
    </linearGradient>
    <linearGradient id="suit" x1=".2" y1=".2" x2=".9" y2="1">
      <stop offset="0" stop-color="#111111"/>
      <stop offset="1" stop-color="#30343a"/>
    </linearGradient>
    <filter id="softShadow" x="-20%" y="-20%" width="140%" height="140%">
      <feDropShadow dx="0" dy="28" stdDeviation="28" flood-color="#111111" flood-opacity=".14"/>
    </filter>
  </defs>
  <rect width="720" height="900" fill="url(#bg)"/>
  <path d="M504 0h216v216L504 0Z" fill="#f0f0ef"/>
  <path d="M720 530v370H350L720 530Z" fill="#df1119"/>
  <path d="M70 138h415" stroke="#df1119" stroke-width="4"/>
  <path d="M108 138l32 32 32-32" fill="#df1119"/>
  <path d="M80 712c55-133 157-196 278-196 129 0 230 70 282 196v188H80V712Z" fill="url(#suit)" filter="url(#softShadow)"/>
  <path d="M287 527h142l-24 373h-92L287 527Z" fill="#fff"/>
  <path d="M306 561h104l-26 68h-52l-26-68Z" fill="#eef2f7"/>
  <circle cx="360" cy="316" r="142" fill="#f0c9b2"/>
  <path d="M229 315c2-96 63-172 153-172 84 0 143 59 147 152-34-28-78-43-133-45-72-2-120 16-167 65Z" fill="#191919"/>
  <path d="M239 329c26-64 76-98 153-96 48 2 89 16 122 43 3 18 4 33 2 48-57-16-105-21-144-15-44 6-87 24-133 54-3-11-3-22 0-34Z" fill="#222"/>
  <path d="M248 371c28 79 69 119 123 119 55 0 96-41 121-123-35 22-73 34-114 34-46 0-89-10-130-30Z" fill="#efc0a6"/>
  <rect x="247" y="348" width="87" height="38" rx="19" fill="none" stroke="#20222a" stroke-width="10"/>
  <rect x="386" y="348" width="87" height="38" rx="19" fill="none" stroke="#20222a" stroke-width="10"/>
  <path d="M334 365h52" stroke="#20222a" stroke-width="10" stroke-linecap="round"/>
  <path d="M318 436c31 21 62 21 93 0" fill="none" stroke="#8f5c4a" stroke-width="10" stroke-linecap="round"/>
  <text x="72" y="620" fill="#111111" fill-opacity=".06" font-family="Arial, Helvetica, sans-serif" font-size="142" font-weight="800">CHOI</text>
  <text x="70" y="96" fill="#111111" font-family="Arial, Helvetica, sans-serif" font-size="38" font-weight="800">CHONGRO</text>
  <text x="70" y="708" fill="#ffffff" font-family="Arial, Helvetica, sans-serif" font-size="38" font-weight="800">CHOI JAEBONG</text>
  <text x="70" y="754" fill="#ffb8bb" font-family="Arial, Helvetica, sans-serif" font-size="24" font-weight="700">Study Abroad Counsellor</text>
</svg>
